<?xml version="1.0" encoding="UTF-8"?>
<svg xmlns="http://www.w3.org/2000/svg" width="68" height="68" viewBox="0 0 68 68" fill="none">
  <path d="M0.992188 15.0629V6.88234C0.992188 6.14882 1.58692 5.55422 2.32031 5.55422H65.6719C66.4053 5.55422 67 6.14882 67 6.88234V55.457C67 56.1904 66.4053 56.7852 65.6719 56.7852H52.0586" stroke="#BD8712" stroke-width="1.99218" stroke-miterlimit="10" stroke-linecap="round" stroke-linejoin="round"></path>
  <path d="M46.1484 56.7852H2.32031C1.58692 56.7852 0.992188 56.1906 0.992188 55.457V20.1098" stroke="#BD8712" stroke-width="1.99218" stroke-miterlimit="10" stroke-linecap="round" stroke-linejoin="round"></path>
  <path d="M62.9291 36.9753V9.6175H5.07031V52.7188H45.9529" stroke="#BD8712" stroke-width="1.99218" stroke-miterlimit="10" stroke-linecap="round" stroke-linejoin="round"></path>
  <path d="M52.125 52.7188H62.9254V42.2878" stroke="#BD8712" stroke-width="1.99218" stroke-miterlimit="10" stroke-linecap="round" stroke-linejoin="round"></path>
  <path d="M12.9141 17.957H47.2523" stroke="#BD8712" stroke-width="1.99218" stroke-miterlimit="10" stroke-linecap="round" stroke-linejoin="round"></path>
  <path d="M12.9141 24.0156H55.0787" stroke="#BD8712" stroke-width="1.99218" stroke-miterlimit="10" stroke-linecap="round" stroke-linejoin="round"></path>
  <path d="M12.9141 30.0742H36.87" stroke="#BD8712" stroke-width="1.99218" stroke-miterlimit="10" stroke-linecap="round" stroke-linejoin="round"></path>
  <path d="M14.3184 46.9191C15.6057 43.5298 16.1774 39.92 16.2707 36.3051C15.6186 36.3934 14.9664 36.4816 14.3143 36.5699C14.7567 39.2233 14.7917 42.038 16.0303 44.4859C16.6121 45.6356 17.7985 46.3157 19.0679 45.8042C20.1388 45.3729 20.9923 44.1826 21.3193 43.1032H19.3983C19.5367 43.822 19.9244 44.5628 20.438 45.0813C21.4042 46.0564 22.6748 45.9522 23.9387 45.9506C25.9104 45.9481 27.8824 45.9434 29.8543 45.9378C31.136 45.9343 31.1384 43.9421 29.8543 43.9457C28.1636 43.9504 26.4728 43.9544 24.7821 43.9571C24.2389 43.958 23.6957 43.9588 23.1528 43.9592C22.7371 43.9595 22.2887 44.0329 21.9374 43.7646C21.5444 43.4644 21.4092 43.0406 21.3193 42.5736C21.1245 41.5622 19.6657 41.691 19.3983 42.5736C19.2799 42.9645 18.6822 44.0833 18.1602 43.9919C17.8836 43.9434 17.7627 43.5166 17.6605 43.2957C17.4614 42.8655 17.3164 42.4096 17.1923 41.9527C16.6678 40.0224 16.563 38.007 16.2353 36.0403C16.0451 34.8998 14.3066 35.2223 14.2785 36.3051C14.1894 39.7544 13.6254 43.1564 12.3974 46.3894C11.9417 47.5891 13.8669 48.1079 14.3184 46.9191Z" fill="#BD8712"></path>
  <path d="M51.9141 46.4844V62.2891L49.0586 60.9609L46.2031 62.2891V46.4844" stroke="#BD8712" stroke-width="1.99218" stroke-miterlimit="10" stroke-linecap="round" stroke-linejoin="round"></path>
  <path d="M49.0607 48.4688C48.0532 48.4688 47.3934 46.7536 46.5172 46.3896C45.6089 46.0123 43.935 46.7434 43.2504 46.0577C42.5661 45.372 43.2957 43.695 42.9191 42.7851C42.5557 41.9072 40.8438 41.2462 40.8438 40.2368C40.8438 39.2273 42.5557 38.5663 42.9191 37.6885C43.2957 36.7786 42.5661 35.1016 43.2504 34.4159C43.935 33.7301 45.6089 34.4612 46.5172 34.0839C47.3934 33.72 48.0532 32.0048 49.0607 32.0048C50.0684 32.0048 50.7282 33.72 51.6043 34.0839C52.5127 34.4612 54.1866 33.7302 54.8711 34.4159C55.5555 35.1017 54.8258 36.7786 55.2025 37.6885C55.5657 38.5663 57.2778 39.2273 57.2778 40.2368C57.2778 41.2462 55.5657 41.9072 55.2024 42.7851C54.8258 43.695 55.5555 45.372 54.871 46.0577C54.1866 46.7434 52.5127 46.0123 51.6043 46.3897C50.7282 46.7536 50.0684 48.4688 49.0607 48.4688Z" stroke="#BD8712" stroke-width="1.99218" stroke-miterlimit="10" stroke-linecap="round" stroke-linejoin="round"></path>
  <path d="M51.9532 40.2364C51.9532 41.835 50.6572 43.1309 49.0586 43.1309C47.46 43.1309 46.1641 41.835 46.1641 40.2364C46.1641 38.6377 47.46 37.3418 49.0586 37.3418C50.6572 37.3418 51.9532 38.6377 51.9532 40.2364Z" stroke="#BD8712" stroke-width="1.99218" stroke-miterlimit="10" stroke-linecap="round" stroke-linejoin="round"></path>
</svg>
