<?xml version="1.0" encoding="UTF-8"?>
<svg xmlns="http://www.w3.org/2000/svg" width="61" height="60" viewBox="0 0 61 60" fill="none">
  <g clip-path="url(#clip0_863_11541)">
    <path fill-rule="evenodd" clip-rule="evenodd" d="M0.333374 30C0.333374 13.4314 13.7648 0 30.3334 0C46.9019 0 60.3334 13.4314 60.3334 30C60.3334 46.5685 46.9019 60 30.3334 60C13.7648 60 0.333374 46.5685 0.333374 30Z" fill="#D3A344" fill-opacity="0.0980392"></path>
    <g clip-path="url(#clip1_863_11541)">
      <path d="M39.1901 13.3333H21.4818C17.1671 13.3333 13.6693 16.831 13.6693 21.1458V38.8541C13.6693 43.1688 17.1671 46.6666 21.4818 46.6666H39.1901C43.5049 46.6666 47.0026 43.1688 47.0026 38.8541V21.1458C47.0026 16.831 43.5049 13.3333 39.1901 13.3333Z" fill="url(#paint0_radial_863_11541)"></path>
      <path d="M39.1901 13.3333H21.4818C17.1671 13.3333 13.6693 16.831 13.6693 21.1458V38.8541C13.6693 43.1688 17.1671 46.6666 21.4818 46.6666H39.1901C43.5049 46.6666 47.0026 43.1688 47.0026 38.8541V21.1458C47.0026 16.831 43.5049 13.3333 39.1901 13.3333Z" fill="url(#paint1_radial_863_11541)"></path>
      <path d="M30.3358 16.979C26.7997 16.979 26.3558 16.9945 24.967 17.0576C23.5808 17.1212 22.6345 17.3406 21.8067 17.6626C20.9502 17.9951 20.2237 18.4401 19.5 19.164C18.7757 19.8879 18.3308 20.6143 17.9972 21.4704C17.6743 22.2985 17.4546 23.2451 17.3922 24.6307C17.3301 26.0196 17.3138 26.4636 17.3138 30C17.3138 33.5363 17.3295 33.9787 17.3925 35.3675C17.4563 36.7537 17.6757 37.7 17.9974 38.5278C18.3302 39.3843 18.7752 40.1108 19.4991 40.8345C20.2227 41.5588 20.9491 42.0048 21.805 42.3373C22.6335 42.6593 23.5799 42.8787 24.9658 42.9423C26.3547 43.0054 26.7982 43.0209 30.3343 43.0209C33.8709 43.0209 34.3133 43.0054 35.7021 42.9423C37.0883 42.8787 38.0356 42.6593 38.8641 42.3373C39.7202 42.0048 40.4456 41.5588 41.169 40.8345C41.8934 40.1108 42.3382 39.3843 42.6719 38.5282C42.992 37.7 43.2118 36.7535 43.2769 35.3678C43.3392 33.979 43.3555 33.5363 43.3555 30C43.3555 26.4636 43.3392 26.0199 43.2769 24.631C43.2118 23.2448 42.992 22.2987 42.6719 21.4708C42.3382 20.6143 41.8934 19.8879 41.169 19.164C40.4448 18.4398 39.7205 17.9949 38.8633 17.6627C38.0332 17.3406 37.0865 17.1211 35.7003 17.0576C34.3114 16.9945 33.8692 16.979 30.3318 16.979H30.3358ZM29.1677 19.3255C29.5145 19.325 29.9013 19.3255 30.3358 19.3255C33.8125 19.3255 34.2245 19.338 35.5974 19.4004C36.867 19.4584 37.556 19.6705 38.015 19.8488C38.6227 20.0847 39.0559 20.3669 39.5114 20.8228C39.9671 21.2785 40.2491 21.7125 40.4857 22.3201C40.664 22.7785 40.8763 23.4675 40.9342 24.7371C40.9965 26.1097 41.0101 26.522 41.0101 29.997C41.0101 33.472 40.9965 33.8843 40.9342 35.2569C40.8761 36.5264 40.664 37.2155 40.4857 37.6739C40.2498 38.2816 39.9671 38.7143 39.5114 39.1698C39.0556 39.6255 38.623 39.9075 38.015 40.1436C37.5566 40.3226 36.867 40.5342 35.5974 40.5923C34.2248 40.6547 33.8125 40.6682 30.3358 40.6682C26.859 40.6682 26.4469 40.6547 25.0744 40.5923C23.8049 40.5337 23.1158 40.3216 22.6564 40.1433C22.0489 39.9073 21.6148 39.6252 21.159 39.1695C20.7033 38.7138 20.4213 38.2808 20.1847 37.6729C20.0064 37.2144 19.7941 36.5254 19.7362 35.2558C19.6739 33.8832 19.6614 33.4709 19.6614 29.9937C19.6614 26.5166 19.6739 26.1065 19.7362 24.7338C19.7943 23.4643 20.0064 22.7752 20.1847 22.3162C20.4207 21.7086 20.7033 21.2746 21.1592 20.8188C21.6149 20.3631 22.0489 20.081 22.6566 19.8445C23.1155 19.6655 23.8049 19.4539 25.0744 19.3955C26.2756 19.3412 26.7411 19.325 29.1677 19.3222V19.3255ZM37.2864 21.4875C36.4237 21.4875 35.7239 22.1867 35.7239 23.0494C35.7239 23.9121 36.4237 24.6119 37.2864 24.6119C38.149 24.6119 38.8489 23.9121 38.8489 23.0494C38.8489 22.1868 38.149 21.4869 37.2864 21.4869V21.4875ZM30.3358 23.3131C26.6431 23.3131 23.6491 26.3071 23.6491 30C23.6491 33.6928 26.6431 36.6854 30.3358 36.6854C34.0287 36.6854 37.0217 33.6928 37.0217 30C37.0217 26.3073 34.0284 23.3131 30.3356 23.3131H30.3358ZM30.3358 25.6596C32.7329 25.6596 34.6762 27.6027 34.6762 30C34.6762 32.397 32.7329 34.3403 30.3358 34.3403C27.9387 34.3403 25.9956 32.397 25.9956 30C25.9956 27.6027 27.9387 25.6596 30.3358 25.6596Z" fill="white"></path>
    </g>
  </g>
  <defs>
    <radialGradient id="paint0_radial_863_11541" cx="0" cy="0" r="1" gradientUnits="userSpaceOnUse" gradientTransform="translate(22.5235 49.2339) rotate(-90) scale(33.0358 30.7259)">
      <stop stop-color="#FFDD55"></stop>
      <stop offset="0.1" stop-color="#FFDD55"></stop>
      <stop offset="0.5" stop-color="#FF543E"></stop>
      <stop offset="1" stop-color="#C837AB"></stop>
    </radialGradient>
    <radialGradient id="paint1_radial_863_11541" cx="0" cy="0" r="1" gradientUnits="userSpaceOnUse" gradientTransform="translate(8.08585 15.7344) rotate(78.681) scale(14.7672 60.8708)">
      <stop stop-color="#3771C8"></stop>
      <stop offset="0.128" stop-color="#3771C8"></stop>
      <stop offset="1" stop-color="#6600FF" stop-opacity="0"></stop>
    </radialGradient>
    <clipPath id="clip0_863_11541">
      <rect width="60" height="60" fill="white" transform="translate(0.333374)"></rect>
    </clipPath>
    <clipPath id="clip1_863_11541">
      <rect width="33.3333" height="33.3333" fill="white" transform="translate(13.6654 13.3333)"></rect>
    </clipPath>
  </defs>
</svg>
