<?xml version="1.0" encoding="UTF-8"?>
<svg xmlns="http://www.w3.org/2000/svg" width="60" height="60" viewBox="0 0 60 60" fill="none">
  <g clip-path="url(#clip0_2426_1218)">
    <path fill-rule="evenodd" clip-rule="evenodd" d="M0 30C0 13.4314 13.4314 0 30 0C46.5685 0 60 13.4314 60 30C60 46.5685 46.5685 60 30 60C13.4314 60 0 46.5685 0 30Z" fill="#D3A344" fill-opacity="0.0980392"></path>
    <path d="M37.2866 25.2024C39.4949 26.7802 42.2001 27.7085 45.1219 27.7085V22.0892C44.5689 22.0893 44.0174 22.0316 43.4764 21.917V26.3403C40.5549 26.3403 37.85 25.4121 35.6413 23.8344V35.3019C35.6413 41.0387 30.9884 45.6887 25.2492 45.6887C23.1077 45.6887 21.1173 45.0417 19.4639 43.9319C21.351 45.8605 23.9827 47.0569 26.8942 47.0569C32.6338 47.0569 37.2869 42.4068 37.2869 36.6698V25.2024H37.2866ZM39.3166 19.5332C38.188 18.301 37.447 16.7084 37.2866 14.9478V14.2251H35.7274C36.1199 16.4628 37.4588 18.3745 39.3166 19.5332ZM23.0939 39.5298C22.4634 38.7036 22.1226 37.6927 22.1241 36.6534C22.1241 34.0297 24.2523 31.9023 26.878 31.9023C27.3672 31.9021 27.8536 31.9772 28.32 32.125V26.38C27.775 26.3054 27.225 26.2736 26.6752 26.2853V30.7568C26.2086 30.6089 25.722 30.5339 25.2325 30.5343C22.6069 30.5343 20.4788 32.6615 20.4788 35.2855C20.4788 37.141 21.5425 38.7473 23.0939 39.5298Z" fill="#FF004F"></path>
    <path d="M35.6412 23.8343C37.85 25.4119 40.5547 26.3401 43.4763 26.3401V21.9169C41.8455 21.5697 40.4018 20.718 39.3164 19.5332C37.4584 18.3744 36.1198 16.4627 35.7273 14.2251H31.6315V36.6696C31.6222 39.2862 29.4977 41.4048 26.8776 41.4048C25.3338 41.4048 23.9622 40.6693 23.0936 39.5297C21.5424 38.7473 20.4786 37.1408 20.4786 35.2856C20.4786 32.6618 22.6067 30.5345 25.2323 30.5345C25.7353 30.5345 26.2202 30.6127 26.675 30.757V26.2854C21.0365 26.4018 16.502 31.0065 16.502 36.6697C16.502 39.4967 17.6311 42.0595 19.4639 43.9321C21.1173 45.0417 23.1076 45.689 25.2492 45.689C30.9885 45.689 35.6413 41.0385 35.6413 35.3019V23.8344L35.6412 23.8343Z" fill="black"></path>
    <path d="M43.4766 21.9169V20.7211C42.006 20.7234 40.5644 20.3117 39.3167 19.5333C40.4212 20.7418 41.8755 21.5752 43.4766 21.9171V21.9169ZM35.7275 14.2251C35.6901 14.0113 35.6613 13.796 35.6414 13.5799V12.8572H29.9862V35.3019C29.9772 37.9183 27.8526 40.0369 25.2325 40.0369C24.4897 40.038 23.7571 39.8644 23.0938 39.53C23.9624 40.6694 25.3341 41.4048 26.8779 41.4048C29.4978 41.4048 31.6225 39.2864 31.6317 36.6698V14.2252H35.7275V14.2251ZM26.6756 26.2854V25.0122C26.203 24.9476 25.7266 24.9153 25.2496 24.9155C19.5097 24.9155 14.8569 29.5658 14.8569 35.3019C14.8569 38.8982 16.6855 42.0677 19.4643 43.932C17.6316 42.0595 16.5024 39.4966 16.5024 36.6697C16.5024 31.0066 21.0369 26.4018 26.6756 26.2854Z" fill="#00F2EA"></path>
  </g>
  <defs>
    <clipPath id="clip0_2426_1218">
      <rect width="60" height="60" fill="white"></rect>
    </clipPath>
  </defs>
</svg>
