<?xml version="1.0" encoding="UTF-8"?>
<svg xmlns="http://www.w3.org/2000/svg" width="61" height="60" viewBox="0 0 61 60" fill="none">
  <g clip-path="url(#clip0_863_11549)">
    <path fill-rule="evenodd" clip-rule="evenodd" d="M0.666626 30C0.666626 13.4314 14.098 0 30.6666 0C47.2351 0 60.6666 13.4314 60.6666 30C60.6666 46.5685 47.2351 60 30.6666 60C14.098 60 0.666626 46.5685 0.666626 30Z" fill="#D3A344" fill-opacity="0.0980392"></path>
    <g clip-path="url(#clip1_863_11549)">
      <path fill-rule="evenodd" clip-rule="evenodd" d="M45.518 19.9643C46.0356 20.4819 46.4085 21.126 46.5997 21.8326C47.7006 26.2641 47.4463 33.2632 46.6211 37.8658C46.4299 38.5724 46.0569 39.2166 45.5393 39.7342C45.0217 40.2518 44.3775 40.6247 43.6709 40.8159C41.0844 41.5214 30.6736 41.5214 30.6736 41.5214C30.6736 41.5214 20.2626 41.5214 17.6759 40.8159C16.9693 40.6247 16.3252 40.2517 15.8076 39.7341C15.29 39.2165 14.9171 38.5724 14.7259 37.8658C13.6185 33.4536 13.922 26.4502 14.7044 21.8541C14.8956 21.1475 15.2685 20.5033 15.7861 19.9857C16.3037 19.4681 16.9478 19.0951 17.6544 18.9038C20.2411 18.1984 30.6523 18.177 30.6523 18.177C30.6523 18.177 41.063 18.177 43.6497 18.8825C44.3563 19.0737 45.0004 19.4467 45.518 19.9643ZM35.975 29.8491L27.3385 34.8515V24.8468L35.975 29.8491Z" fill="#FF0000"></path>
    </g>
  </g>
  <defs>
    <clipPath id="clip0_863_11549">
      <rect width="60" height="60" fill="white" transform="translate(0.666626)"></rect>
    </clipPath>
    <clipPath id="clip1_863_11549">
      <rect width="33.3333" height="23.4375" fill="white" transform="translate(13.9987 18.177)"></rect>
    </clipPath>
  </defs>
</svg>
