<?xml version="1.0" encoding="UTF-8"?>
<svg xmlns="http://www.w3.org/2000/svg" width="60" height="60" viewBox="0 0 60 60" fill="none">
  <g clip-path="url(#clip0_863_11556)">
    <path fill-rule="evenodd" clip-rule="evenodd" d="M0 30C0 13.4314 13.4314 0 30 0C46.5685 0 60 13.4314 60 30C60 46.5685 46.5685 60 30 60C13.4314 60 0 46.5685 0 30Z" fill="#D3A344" fill-opacity="0.0980392"></path>
    <mask id="mask0_863_11556" style="mask-type:luminance" maskUnits="userSpaceOnUse" x="10" y="10" width="40" height="40">
      <path d="M10 10H49.9997V50H10V10Z" fill="white"></path>
    </mask>
    <g mask="url(#mask0_863_11556)">
      <path fill-rule="evenodd" clip-rule="evenodd" d="M27.5479 12.6167H30.65C34.9105 12.6167 37.4003 13.2425 39.6104 14.4274C41.8206 15.6124 43.5647 17.3432 44.7364 19.5534C45.9214 21.7635 46.5471 24.2533 46.5471 28.5138V31.6027C46.5471 35.8633 45.9214 38.353 44.7364 40.5632C43.5514 42.7733 41.8206 44.5175 39.6104 45.6891C37.4003 46.8741 34.9105 47.4999 30.65 47.4999H27.5612C23.3006 47.4999 20.8109 46.8741 18.6007 45.6891C16.3906 44.5042 14.6464 42.7733 13.4748 40.5632C12.2898 38.353 11.6641 35.8633 11.6641 31.6027V28.5138C11.6641 24.2533 12.2898 21.7635 13.4748 19.5534C14.6597 17.3432 16.3906 15.5991 18.6007 14.4274C20.7976 13.2425 23.3006 12.6167 27.5479 12.6167Z" fill="#0068FF"></path>
      <path fill-rule="evenodd" clip-rule="evenodd" d="M46.546 31.0933V31.603C46.546 35.8635 45.9203 38.3533 44.7353 40.5634C43.5504 42.7735 41.8194 44.5177 39.6093 45.6894C37.3992 46.8744 34.9094 47.5001 30.6489 47.5001H27.5601C24.0739 47.5001 21.7733 47.0812 19.8413 46.2797L16.6562 42.9998L46.546 31.0933Z" fill="#001A33" fill-opacity="0.12"></path>
      <path fill-rule="evenodd" clip-rule="evenodd" d="M17.0084 43.1138C18.6398 43.2941 20.6795 42.829 22.1278 42.1258C28.4166 45.6019 38.2472 45.4359 44.1977 41.6277C44.4285 41.2816 44.6441 40.9215 44.8442 40.5483C46.0335 38.3301 46.6615 35.8313 46.6615 31.5552V28.4551C46.6615 24.179 46.0335 21.6802 44.8442 19.462C43.6683 17.2438 41.9178 15.5066 39.6996 14.3173C37.4814 13.128 34.9826 12.5 30.7065 12.5H27.593C23.9512 12.5 21.587 12.9584 19.6006 13.8337C19.492 13.9309 19.3855 14.0298 19.2812 14.1303C13.4534 19.7482 13.0104 31.9259 17.9521 38.541C17.9577 38.5508 17.9638 38.5606 17.9705 38.5705C18.7322 39.693 17.9972 41.6574 16.848 42.8065C16.6609 42.9803 16.7277 43.0871 17.0084 43.1138Z" fill="white"></path>
      <path d="M25.9892 24.4395H19.1591V25.904H23.8989L19.2256 31.6957C19.0791 31.9087 18.9727 32.1085 18.9727 32.5611V32.9339H25.4166C25.7362 32.9339 26.0025 32.6676 26.0025 32.3481V31.5626H21.023L25.4166 26.0505C25.4832 25.9706 25.603 25.8241 25.6564 25.7576L25.683 25.7177C25.9359 25.3448 25.9892 25.0253 25.9892 24.6392V24.4395Z" fill="#0068FF"></path>
      <path d="M34.6879 32.9339H35.6599V24.4395H34.1953V32.4413C34.1953 32.7076 34.4083 32.9339 34.6879 32.9339Z" fill="#0068FF"></path>
      <path fill-rule="evenodd" clip-rule="evenodd" d="M29.6762 26.3303C27.8388 26.3303 26.3477 27.8215 26.3477 29.6588C26.3477 31.4962 27.8388 32.9874 29.6762 32.9874C31.5136 32.9874 33.0047 31.4962 33.0047 29.6588C33.018 27.8215 31.5269 26.3303 29.6762 26.3303ZM29.6762 31.616C28.5979 31.616 27.7191 30.7373 27.7191 29.6588C27.7191 28.5804 28.5979 27.7017 29.6762 27.7017C30.7547 27.7017 31.6334 28.5804 31.6334 29.6588C31.6334 30.7373 30.7681 31.616 29.6762 31.616Z" fill="#0068FF"></path>
      <path fill-rule="evenodd" clip-rule="evenodd" d="M39.9802 26.2769C38.1295 26.2769 36.625 27.7814 36.625 29.632C36.625 31.4828 38.1295 32.9872 39.9802 32.9872C41.8308 32.9872 43.3353 31.4828 43.3353 29.632C43.3353 27.7814 41.8308 26.2769 39.9802 26.2769ZM39.9802 31.6159C38.8884 31.6159 38.0096 30.7372 38.0096 29.6454C38.0096 28.5536 38.8884 27.6748 39.9802 27.6748C41.0719 27.6748 41.9507 28.5536 41.9507 29.6454C41.9507 30.7372 41.0719 31.6159 39.9802 31.6159Z" fill="#0068FF"></path>
      <path d="M32.2343 32.9335H33.0198V26.5161H31.6484V32.361C31.6484 32.6673 31.9147 32.9335 32.2343 32.9335Z" fill="#0068FF"></path>
    </g>
  </g>
  <defs>
    <clipPath id="clip0_863_11556">
      <rect width="60" height="60" fill="white"></rect>
    </clipPath>
  </defs>
</svg>
